<?xml version="1.0" standalone="no"?>
<!DOCTYPE svg PUBLIC "-//W3C//DTD SVG 20010904//EN"
 "http://www.w3.org/TR/2001/REC-SVG-20010904/DTD/svg10.dtd">
<svg version="1.0" xmlns="http://www.w3.org/2000/svg"
 width="205.000000pt" height="203.000000pt" viewBox="0 0 205.000000 203.000000"
 preserveAspectRatio="xMidYMid meet">
<metadata>
Created by potrace 1.16, written by Peter Selinger 2001-2019
</metadata>
<g transform="translate(0.000000,203.000000) scale(0.100000,-0.100000)"
fill="#000000" stroke="none">
<path d="M1481 1642 c-34 -5 -69 -28 -114 -74 -72 -74 -18 -109 58 -39 35 32
52 41 80 41 78 0 101 -78 41 -144 -41 -44 -53 -86 -36 -127 12 -27 10 -32 -25
-70 -20 -22 -33 -44 -29 -47 4 -4 9 0 12 8 3 8 20 28 38 44 31 29 32 30 17 62
-20 41 -12 71 32 124 43 52 48 104 12 138 -42 40 -94 34 -149 -18 -44 -41 -62
-48 -74 -29 -8 13 60 85 100 106 40 21 110 12 143 -18 64 -60 66 -129 7 -200
-19 -23 -34 -51 -34 -64 0 -34 44 -65 91 -65 32 0 39 -3 39 -20 0 -18 -7 -20
-60 -20 -52 0 -64 -4 -95 -31 -44 -39 -46 -76 -7 -120 25 -28 37 -33 88 -36
76 -6 85 -9 78 -28 -5 -11 -21 -15 -66 -15 -94 0 -152 42 -167 121 -6 34 -10
40 -16 26 -11 -27 33 -105 76 -134 31 -20 46 -24 104 -21 51 2 71 7 79 20 17
27 -5 40 -66 40 -114 1 -165 72 -99 139 26 26 37 29 89 29 41 0 63 5 72 15 19
23 -5 45 -49 45 -74 0 -105 54 -56 100 33 31 59 102 51 141 -15 76 -92 133
-165 121z"/>
<path d="M553 1495 c-18 -20 -18 -18 32 -75 30 -34 45 -60 45 -78 0 -55 -56
-101 -102 -83 -13 5 -42 28 -66 51 -43 43 -58 46 -76 17 -8 -13 -4 -23 17 -45
28 -29 38 -76 23 -101 -4 -6 -22 -11 -40 -11 -51 0 -98 -20 -133 -56 -62 -64
-51 -147 29 -204 36 -26 50 -30 108 -30 48 0 69 4 73 13 10 27 -10 40 -60 38
-40 -1 -57 4 -89 27 -83 60 -35 152 79 152 45 0 70 18 96 68 9 17 20 22 48 22
55 0 116 34 136 75 33 70 16 137 -52 198 -45 41 -50 43 -68 22z"/>
<path d="M1600 1155 c-25 -30 -4 -45 59 -45 76 0 121 -32 121 -86 0 -41 -36
-84 -72 -85 -73 -3 -90 -7 -118 -34 -16 -15 -29 -31 -28 -34 3 -28 -4 -32 -40
-26 -91 15 -173 -82 -149 -176 11 -45 81 -129 107 -129 9 0 23 6 29 14 10 12
2 25 -38 70 -28 31 -51 64 -51 74 0 9 9 32 20 50 17 28 25 32 61 32 34 0 49
-7 86 -40 25 -22 54 -40 64 -40 27 0 24 36 -6 72 -48 57 -25 108 49 108 154 0
198 217 56 274 -52 20 -133 21 -150 1z"/>
<path d="M358 1043 c-5 -7 -8 -20 -6 -30 3 -15 16 -19 73 -24 39 -3 80 -11 93
-17 12 -7 22 -10 22 -8 0 14 -52 31 -110 36 -51 4 -66 9 -68 23 -3 15 6 17 72
17 73 0 78 -1 115 -35 65 -59 62 -153 -6 -203 -25 -18 -26 -23 -15 -41 24 -40
15 -85 -28 -137 -49 -60 -52 -94 -11 -135 46 -45 89 -41 151 17 46 43 70 50
70 20 0 -25 -96 -104 -134 -111 -91 -17 -175 77 -152 168 3 14 22 44 41 67 19
23 35 50 35 59 0 29 -42 59 -93 66 -37 6 -47 11 -45 24 3 12 19 17 76 21 62 4
77 9 93 29 11 13 18 37 18 55 l-2 31 -4 -30 c-8 -54 -38 -75 -107 -75 -69 0
-90 -9 -84 -35 2 -13 19 -22 55 -30 88 -20 104 -49 56 -102 -42 -44 -53 -69
-53 -113 0 -51 19 -88 60 -118 64 -48 131 -37 209 34 44 39 50 68 19 87 -13 9
-26 2 -67 -36 -59 -55 -97 -62 -136 -22 -34 33 -31 66 10 115 41 49 50 76 41
132 -6 34 -3 44 18 65 32 32 50 86 42 126 -8 40 -51 96 -84 108 -40 15 -152
16 -164 2z"/>
</g>
</svg>
